HIERARCHY
ROOT Hips
{
	OFFSET 0.000000 0.000000 0.000000
	CHANNELS 6 Xposition Yposition Zposition Zrotation Yrotation Xrotation 
	JOINT LHipJoint
	{
		OFFSET 0.000000 0.000000 0.000000
		CHANNELS 3 Zrotation Yrotation Xrotation
		JOINT LeftUpLeg
		{
			OFFSET 1.363060 -1.794630 0.839290
			CHANNELS 3 Zrotation Yrotation Xrotation
			JOINT LeftLeg
			{
				OFFSET 2.448110 -6.726130 0.000000
				CHANNELS 3 Zrotation Yrotation Xrotation
				JOINT LeftFoot
				{
					OFFSET 2.562200 -7.039590 0.000000
					CHANNELS 3 Zrotation Yrotation Xrotation
					JOINT LeftToeBase
					{
						OFFSET 0.157640 -0.433110 2.322550
						CHANNELS 3 Zrotation Yrotation Xrotation
						End Site
						{
							OFFSET 0.000000 0.000000 0.000000
						}
					}
				}
			}
		}
	}
	JOINT RHipJoint
	{
		OFFSET 0.000000 0.000000 0.000000
		CHANNELS 3 Zrotation Yrotation Xrotation
		JOINT RightUpLeg
		{
			OFFSET -1.305520 -1.794630 0.839290
			CHANNELS 3 Zrotation Yrotation Xrotation
			JOINT RightLeg
			{
				OFFSET -2.542530 -6.985550 0.000000
				CHANNELS 3 Zrotation Yrotation Xrotation
				JOINT RightFoot
				{
					OFFSET -2.568260 -7.056230 0.000000
					CHANNELS 3 Zrotation Yrotation Xrotation
					JOINT RightToeBase
					{
						OFFSET -0.164730 -0.452590 2.363150
						CHANNELS 3 Zrotation Yrotation Xrotation
						End Site
						{
							OFFSET 0.000000 0.000000 0.000000
						}
					}
				}
			}
		}
	}
	JOINT LowerBack
	{
		OFFSET 0.000000 0.000000 0.000000
		CHANNELS 3 Zrotation Yrotation Xrotation
		JOINT Spine
		{
			OFFSET 0.028270 2.035590 -0.193380
			CHANNELS 3 Zrotation Yrotation Xrotation
			JOINT Spine1
			{
				OFFSET 0.056720 2.048850 -0.042750
				CHANNELS 3 Zrotation Yrotation Xrotation
				JOINT Neck
				{
					OFFSET 0.000000 0.000000 0.000000
					CHANNELS 3 Zrotation Yrotation Xrotation
					JOINT Neck1
					{
						OFFSET -0.054170 1.746240 0.172020
						CHANNELS 3 Zrotation Yrotation Xrotation
						JOINT Head
						{
							OFFSET 0.104070 1.761360 -0.123970
							CHANNELS 3 Zrotation Yrotation Xrotation
							End Site
							{
								OFFSET 0.000000 0.000000 0.000000
							}
						}
					}
				}
				JOINT LeftShoulder
				{
					OFFSET 0.000000 0.000000 0.000000
					CHANNELS 3 Zrotation Yrotation Xrotation
					JOINT LeftArm
					{
						OFFSET 3.362410 1.200890 -0.311210
						CHANNELS 3 Zrotation Yrotation Xrotation
						JOINT LeftForeArm
						{
							OFFSET 4.983000 -0.000000 -0.000000
							CHANNELS 3 Zrotation Yrotation Xrotation
							JOINT LeftHand
							{
								OFFSET 3.483560 -0.000000 -0.000000
								CHANNELS 3 Zrotation Yrotation Xrotation
								JOINT LeftFingerBase
								{
									OFFSET 0.000000 0.000000 0.000000
									CHANNELS 3 Zrotation Yrotation Xrotation
									JOINT LeftHandIndex1
									{
										OFFSET 0.715260 -0.000000 -0.000000
										CHANNELS 3 Zrotation Yrotation Xrotation
										End Site
										{
											OFFSET 0.000000 0.000000 0.000000
										}
									}
								}
								JOINT LThumb
								{
									OFFSET 0.000000 0.000000 0.000000
									CHANNELS 3 Zrotation Yrotation Xrotation
									End Site
									{
										OFFSET 0.000000 0.000000 0.000000
									}
								}
							}
						}
					}
				}
				JOINT RightShoulder
				{
					OFFSET 0.000000 0.000000 0.000000
					CHANNELS 3 Zrotation Yrotation Xrotation
					JOINT RightArm
					{
						OFFSET -3.136600 1.374050 -0.404650
						CHANNELS 3 Zrotation Yrotation Xrotation
						JOINT RightForeArm
						{
							OFFSET -5.241900 -0.000000 -0.000000
							CHANNELS 3 Zrotation Yrotation Xrotation
							JOINT RightHand
							{
								OFFSET -3.444170 -0.000000 -0.000000
								CHANNELS 3 Zrotation Yrotation Xrotation
								JOINT RightFingerBase
								{
									OFFSET 0.000000 0.000000 0.000000
									CHANNELS 3 Zrotation Yrotation Xrotation
									JOINT RightHandIndex1
									{
										OFFSET -0.622530 -0.000000 -0.000000
										CHANNELS 3 Zrotation Yrotation Xrotation
										End Site
										{
											OFFSET 0.000000 0.000000 0.000000
										}
									}
								}
								JOINT RThumb
								{
									OFFSET 0.000000 0.000000 0.000000
									CHANNELS 3 Zrotation Yrotation Xrotation
									End Site
									{
										OFFSET 0.000000 0.000000 0.000000
									}
								}
							}
						}
					}
				}
			}
		}
	}
}
MOTION
Frames: 9
Frame Time: 0.008333
-21.092780 16.488299 -0.421303 -156.820224 88.283538 -141.952000 -9.301485 0.809352 6.137540 -14.095313 -7.363289 -46.199805 -2.551039 0.052834 13.624972 -0.004796 2.262447 12.910062 1.540300 -0.000000 -22.589400 9.539328 -5.850521 0.971670 9.359133 -8.750216 11.074686 2.450847 -1.006943 9.950603 0.922823 9.609347 11.880409 2.686800 -0.000000 -73.342300 -2.500137 4.525608 -8.827947 -2.060292 4.362235 -4.557258 -7.906138 4.332179 1.737001 12.607103 -4.817199 -9.107233 -3.493056 -0.272865 -0.390343 0.000000 0.000000 0.000000 0.324103 30.262534 1.452695 -50.868989 20.701099 -16.241465 -4.472938 -20.397574 0.006113 5.573879 1.239118 0.067744 -0.195243 -0.099412 -0.000000 0.000000 0.000000 0.000000 0.000000 0.000000 0.000000 18.078923 5.740139 -1.427206 72.478020 19.487937 34.832361 1.029449 74.760485 0.017687 1.935864 6.836247 0.125826 -0.009089 -0.451879 -0.000000 0.000000 0.000000 0.000000 0.000000 0.000000 0.000000 
-20.889332 16.510781 -0.415351 170.834061 88.938824 -174.403414 -9.464301 1.021761 6.400002 -14.198440 -8.256811 -45.541682 -2.508362 0.115169 14.330459 0.163698 2.808113 11.044794 1.610401 0.000000 -21.536700 9.329968 -5.662249 0.938043 8.367970 -8.639860 10.733225 2.156941 -1.174577 11.590262 0.903269 10.160672 14.120804 3.235101 0.000000 -75.851001 -3.465382 4.513986 -9.026429 -2.295653 4.467342 -4.610729 -7.954381 4.435073 1.698297 12.788117 -4.908338 -9.085786 -3.512399 -0.274659 -0.383940 0.000000 0.000000 0.000000 0.355996 30.226507 1.378113 -50.293302 20.315878 -16.077914 -4.500704 -20.374757 0.005832 5.554759 1.282861 0.069744 -0.196964 -0.098777 -0.000000 0.000000 0.000000 0.000000 0.000000 0.000000 0.000000 18.456507 5.699080 -1.404790 73.037946 18.806755 35.065913 1.073441 73.902835 0.018926 2.107131 6.831101 0.136658 -0.009742 -0.449428 -0.000000 0.000000 0.000000 0.000000 0.000000 0.000000 0.000000 
-20.687064 16.534764 -0.408395 147.976387 89.313603 162.607036 -9.118835 1.393642 6.584607 -14.335695 -8.949930 -44.926755 -2.516526 0.154580 15.082930 0.296955 3.290113 9.289436 1.656100 -0.000001 -20.794900 9.648075 -5.472146 0.953614 7.517399 -8.649426 10.169732 1.786481 -1.320070 13.460747 0.851770 10.810945 16.457187 3.882800 -0.000001 -77.794301 -3.826243 4.559216 -9.215421 -2.434411 4.572820 -4.656944 -8.029005 4.553218 1.659779 12.967706 -5.014536 -9.071147 -3.536623 -0.277309 -0.379686 0.000000 0.000000 0.000000 0.367822 30.181886 1.308315 -49.758344 19.877858 -15.918617 -4.517310 -20.355027 0.005585 5.549012 1.323861 0.071645 -0.197412 -0.097885 -0.000000 0.000000 0.000000 0.000000 0.000000 0.000000 0.000000 18.850319 5.659941 -1.381181 73.551771 18.127722 35.239879 1.117469 72.968465 0.019993 2.249028 6.817901 0.145279 -0.009277 -0.445928 0.000000 0.000000 0.000000 0.000000 0.000000 0.000000 0.000000 
-20.487427 16.560108 -0.400810 135.746351 89.161054 150.251841 -8.773246 1.609364 6.694196 -14.674016 -9.559446 -44.260492 -2.538832 0.167099 15.858132 0.399776 3.700640 7.724414 1.674701 0.000000 -20.336300 10.055619 -5.432659 0.980190 6.723134 -8.844298 9.386881 1.449878 -1.492179 15.494342 0.747939 11.512731 18.832024 4.635300 -0.000000 -79.084100 -4.195006 4.476365 -9.366223 -2.538350 4.541579 -4.691009 -8.084195 4.527842 1.630563 13.140787 -5.122998 -9.061417 -3.562809 -0.279940 -0.378516 0.000000 0.000000 0.000000 0.382189 30.050371 1.260742 -49.268786 19.358010 -15.762003 -4.535827 -20.326306 0.005283 5.552212 1.366041 0.073746 -0.197614 -0.096210 -0.000000 0.000000 0.000000 0.000000 0.000000 0.000000 0.000000 19.246519 5.528751 -1.372387 74.025174 17.440686 35.322564 1.161544 71.961252 0.020623 2.355066 6.803198 0.151670 -0.009002 -0.440932 0.000000 0.000000 0.000000 0.000000 0.000000 0.000000 0.000000 
-20.291358 16.586580 -0.392982 129.131056 88.795386 143.499852 -8.508248 1.765668 6.766892 -15.189353 -10.045630 -43.558118 -2.573085 0.181408 16.580848 0.492884 4.058530 6.347713 1.668500 0.000000 -20.112600 10.419469 -5.414025 0.988390 5.896695 -9.181193 8.447704 1.125451 -1.655038 17.724753 0.609844 12.271935 21.237476 5.484900 0.000000 -79.625000 -4.667778 4.340257 -9.469292 -2.646742 4.465105 -4.715264 -8.122664 4.452848 1.605132 13.301492 -5.227537 -9.056000 -3.589451 -0.282323 -0.379576 0.000000 0.000000 0.000000 0.383029 29.882594 1.221613 -48.828188 18.754865 -15.613014 -4.554601 -20.287583 0.004930 5.560309 1.412497 0.076148 -0.197618 -0.094064 -0.000000 0.000000 0.000000 0.000000 0.000000 0.000000 0.000000 19.634329 5.365531 -1.366965 74.467779 16.765838 35.314211 1.206729 70.868580 0.020932 2.422462 6.792642 0.155452 -0.008388 -0.435086 0.000000 0.000000 0.000000 0.000000 0.000000 0.000000 0.000000 
-20.099649 16.613968 -0.385810 125.570865 88.345360 139.787861 -8.303136 1.902105 6.807721 -15.812388 -10.382059 -42.826610 -2.617664 0.202229 17.235279 0.571998 4.333074 5.153450 1.635400 0.000000 -20.056800 10.742072 -5.378262 0.976996 5.072100 -9.628205 7.380967 0.810981 -1.793430 20.130929 0.441998 13.011609 23.652920 6.387700 0.000000 -79.314000 -5.176647 4.185443 -9.522820 -2.754197 4.373094 -4.729332 -8.147418 4.360414 1.582034 13.437581 -5.326659 -9.054772 -3.615202 -0.284384 -0.382351 0.000000 0.000000 0.000000 0.350537 29.697327 1.185636 -48.441873 18.068765 -15.466097 -4.572298 -20.240467 0.004521 5.567681 1.466681 0.078848 -0.197350 -0.091589 -0.000000 0.000000 0.000000 0.000000 0.000000 0.000000 0.000000 19.992052 5.189313 -1.362879 74.883349 16.111880 35.215304 1.253180 69.685237 0.020942 2.447960 6.792381 0.156832 -0.007189 -0.428444 0.000000 0.000000 0.000000 0.000000 0.000000 0.000000 0.000000 
-19.913196 16.642024 -0.379921 123.690309 87.862083 137.736669 -8.143224 2.028486 6.818885 -16.488043 -10.575747 -42.050044 -2.670183 0.227178 17.803373 0.631899 4.505959 4.133950 1.578700 0.000000 -20.100600 11.031383 -5.315716 0.942719 4.272718 -10.179924 6.211621 0.514101 -1.902972 22.679894 0.248686 13.641356 26.032571 7.277600 -0.000000 -78.079800 -5.677740 4.024309 -9.522916 -2.854216 4.273539 -4.732106 -8.159527 4.259608 1.560677 13.540235 -5.417065 -9.056527 -3.639292 -0.286088 -0.386291 0.000000 0.000000 0.000000 0.275736 29.499765 1.151586 -48.115487 17.298338 -15.316881 -4.588717 -20.183523 0.004050 5.570351 1.530764 0.081947 -0.196784 -0.088816 -0.000000 0.000000 0.000000 0.000000 0.000000 0.000000 0.000000 20.303906 5.007311 -1.360371 75.273799 15.482156 35.020822 1.300675 68.410222 0.020674 2.431082 6.806066 0.155810 -0.005383 -0.420954 0.000000 0.000000 0.000000 0.000000 0.000000 0.000000 0.000000 
-19.732490 16.670517 -0.375482 122.704112 87.363940 136.555087 -8.016750 2.146675 6.805240 -17.178132 -10.658885 -41.200045 -2.729011 0.251281 18.256221 0.671258 4.581399 3.277228 1.506000 0.000000 -20.183100 11.294186 -5.223056 0.878368 3.497954 -10.843144 4.967164 0.243391 -1.985119 25.336643 0.036170 14.063428 28.309251 8.066300 0.000000 -75.913301 -6.154820 3.861825 -9.464362 -2.944394 4.169293 -4.722584 -8.159948 4.153776 1.540225 13.605841 -5.493442 -9.058795 -3.661634 -0.287454 -0.390690 0.000000 0.000000 0.000000 0.160504 29.290129 1.119959 -47.854247 16.443329 -15.162820 -4.604135 -20.113434 0.003511 5.565215 1.604262 0.085346 -0.195925 -0.085728 -0.000000 0.000000 0.000000 0.000000 0.000000 0.000000 0.000000 20.563048 4.825880 -1.359708 75.641783 14.875947 34.721642 1.348797 67.045720 0.020149 2.376097 6.834124 0.152586 -0.003097 -0.412591 0.000000 0.000000 0.000000 0.000000 0.000000 0.000000 0.000000 
-19.557660 16.699268 -0.372955 122.303049 86.867256 135.932761 -7.920858 2.254246 6.771611 -17.844241 -10.657019 -40.266568 -2.791335 0.270724 18.582010 0.689978 4.561202 2.558541 1.421200 0.000000 -20.249900 11.527334 -5.102247 0.781048 2.762833 -11.604163 3.674126 0.006406 -2.045803 28.059672 -0.188309 14.152502 30.405006 8.636600 0.000000 -72.896300 -6.589750 3.702116 -9.347956 -3.021426 4.062017 -4.700816 -8.149793 4.044779 1.520148 13.631541 -5.553535 -9.059638 -3.682212 -0.288517 -0.394875 0.000000 0.000000 0.000000 0.000484 29.067463 1.090049 -47.657594 15.510957 -14.994526 -4.618640 -20.033887 0.002916 5.550553 1.686507 0.089144 -0.194794 -0.082395 -0.000000 0.000000 0.000000 0.000000 0.000000 0.000000 0.000000 20.764432 4.647736 -1.360295 75.986261 14.293342 34.314906 1.397329 65.595018 0.019403 2.286526 6.874716 0.147257 -0.000410 -0.403291 0.000000 0.000000 0.000000 0.000000 0.000000 0.000000 0.000000 
